<mxfile host="app.diagrams.net" agent="Mozilla/5.0 (Windows NT 10.0; Win64; x64; rv:129.0) Gecko/20100101 Firefox/129.0" version="24.7.7">
  <diagram name="PÃ¡gina-1" id="rIfUtEnf7er5qqzF8Az-">
    <mxGraphModel dx="712" dy="831" grid="1" gridSize="10" guides="1" tooltips="1" connect="1" arrows="1" fold="1" page="1" pageScale="1" pageWidth="827" pageHeight="1169" math="0" shadow="0">
      <root>
        <mxCell id="0" />
        <mxCell id="1" parent="0" />
        <mxCell id="LRBswxuqiavKZs-7to3B-2" value="" style="html=1;whiteSpace=wrap;" vertex="1" parent="1">
          <mxGeometry x="40" y="110" width="550" height="430" as="geometry" />
        </mxCell>
        <mxCell id="LRBswxuqiavKZs-7to3B-1" value="&lt;div&gt;Todos os Usuarios&lt;/div&gt;&lt;div&gt;&lt;br&gt;&lt;/div&gt;" style="shape=umlActor;verticalLabelPosition=bottom;verticalAlign=top;html=1;" vertex="1" parent="1">
          <mxGeometry x="100" y="295" width="30" height="60" as="geometry" />
        </mxCell>
        <mxCell id="LRBswxuqiavKZs-7to3B-3" value="" style="html=1;whiteSpace=wrap;" vertex="1" parent="1">
          <mxGeometry x="210" y="150" width="340" height="340" as="geometry" />
        </mxCell>
        <mxCell id="LRBswxuqiavKZs-7to3B-4" value="&lt;div&gt;Abrir os Perfis dos Usuarios&lt;br&gt;&lt;/div&gt;" style="ellipse;whiteSpace=wrap;html=1;" vertex="1" parent="1">
          <mxGeometry x="310" y="190" width="140" height="70" as="geometry" />
        </mxCell>
        <mxCell id="LRBswxuqiavKZs-7to3B-5" value="Visualizar livremente os Perfis Cadastrados" style="ellipse;whiteSpace=wrap;html=1;" vertex="1" parent="1">
          <mxGeometry x="310" y="290" width="140" height="70" as="geometry" />
        </mxCell>
        <mxCell id="LRBswxuqiavKZs-7to3B-6" value="Enviar mensagens para os Usuarios " style="ellipse;whiteSpace=wrap;html=1;" vertex="1" parent="1">
          <mxGeometry x="310" y="380" width="140" height="70" as="geometry" />
        </mxCell>
      </root>
    </mxGraphModel>
  </diagram>
</mxfile>
